<?xml version="1.0" standalone="no"?>
<!DOCTYPE svg PUBLIC "-//W3C//DTD SVG 20010904//EN"
 "http://www.w3.org/TR/2001/REC-SVG-20010904/DTD/svg10.dtd">
<svg version="1.0" xmlns="http://www.w3.org/2000/svg"
 width="238.000000pt" height="238.000000pt" viewBox="0 0 238.000000 238.000000"
 preserveAspectRatio="xMidYMid meet">
<metadata>
Created by potrace 1.14, written by Peter Selinger 2001-2017
</metadata>
<g transform="translate(0.000000,238.000000) scale(0.100000,-0.100000)"
fill="#000000" stroke="none">
<path d="M1286 2204 c-33 -11 -70 -25 -81 -31 -11 -5 -44 -11 -74 -12 -30 -1
-57 -4 -60 -6 -3 -1 -27 -6 -53 -9 -111 -15 -274 -83 -383 -161 -66 -47 -178
-157 -223 -220 -76 -105 -153 -288 -168 -402 -5 -38 -14 -58 -33 -76 -34 -31
-128 -139 -164 -189 -16 -21 -31 -56 -34 -78 -5 -35 -3 -40 20 -45 30 -8 65 9
135 64 50 40 71 49 73 34 13 -123 99 -346 158 -412 11 -13 21 -28 21 -33 0
-12 188 -198 200 -198 6 0 8 -13 4 -33 -9 -51 5 -133 29 -168 65 -97 187 -99
317 -5 43 31 49 33 100 26 61 -8 212 -5 275 5 221 35 444 164 587 340 64 79
59 72 94 135 87 156 124 308 119 490 -4 145 -7 167 -42 275 -42 130 -103 241
-180 326 l-34 37 26 64 c35 85 43 150 21 183 -9 14 -25 25 -35 25 -21 0 -62
-43 -105 -112 l-30 -46 -43 29 c-23 17 -81 48 -128 71 -55 26 -85 46 -85 57 0
31 -38 79 -72 89 -44 14 -78 11 -152 -14z"/>
</g>
</svg>
