<?xml version="1.0" encoding="utf-8"?>
<!-- Generator: Adobe Illustrator 19.0.0, SVG Export Plug-In . SVG Version: 6.00 Build 0)  -->
<svg version="1.1" id="Layer_1" xmlns="http://www.w3.org/2000/svg" xmlns:xlink="http://www.w3.org/1999/xlink" x="0px" y="0px"
	 viewBox="0 0 1400 430" style="enable-background:new 0 0 1400 430;" xml:space="preserve">
<style type="text/css">
	.st0{fill:#38C6E5;}
	.st1{fill:#3F3B51;stroke:#000000;stroke-miterlimit:10;}
	.st2{fill:#3F3B51;}
</style>
<path id="XMLID_3_" class="st0" d="M285,128c0,77.9-63.1,141-141,141S3,205.9,3,128c0-19.4,4.4-35.7,6.3-41.9
	c18.6-58.6,70.6-83.8,75.3-86C84.7,0,84.8,0,84.8,0c0,0,118.4,0,118.5,0c0.1,0,0.1,0.1,0.1,0.1c58.2,33,75.3,86,75.3,86
	C280.6,92.4,285,108.7,285,128z"/>
<path id="XMLID_5_" class="st1" d="M488,454"/>
<path id="XMLID_6_" class="st2" d="M126.3,18c-12.9,43.4,14.8,66.8,12.3,98c-4,49.8-79.7,50.1-103.7,115c-12.8,34.5-6.3,72.1,5,93
	c39.1,72.3,154.5,88.3,225,94c519,42,1106-124.2,1135-130.7c0,0,0-287.3,0-287.3C1363.3,0,133.8,0,133.8,0
	C131.6,4,128.7,10.1,126.3,18z"/>
<path id="XMLID_8_" class="st2" d="M1295.7-143.3"/>
<path id="XMLID_2_" class="st1" d="M599.6,411.8"/>
<path id="XMLID_4_" class="st1" d="M613.1,288.6"/>
<path id="XMLID_1_" class="st2" d="M134.3,0"/>
<path id="XMLID_7_" class="st2" d="M134.3,0"/>
<path id="XMLID_9_" class="st2" d="M1316.7-96.7"/>
<path id="XMLID_10_" class="st2" d="M1307-99.3"/>
<line id="XMLID_12_" class="st2" x1="1317.3" y1="-90.3" x2="1304" y2="-91"/>
</svg>
